<svg width="48" height="48" viewBox="0 0 48 48" fill="none" xmlns="http://www.w3.org/2000/svg">
<path d="M40.1978 43.5272C40.4918 43.2962 40.681 42.9591 40.724 42.5901C40.8518 41.8261 40.9051 41.0517 40.8829 40.2776V36.8687C40.8447 35.8371 41.0937 34.8149 41.6027 33.9137C42.0008 33.2169 42.546 32.6132 43.2012 32.1437C42.587 31.6495 42.0485 31.0698 41.6027 30.4226C41.121 29.7338 40.8692 28.9131 40.8829 28.0757V23.8983C40.9051 23.1242 40.8518 22.3498 40.724 21.5858C40.7048 21.4047 40.6482 21.2295 40.5577 21.0709C40.4672 20.9124 40.3447 20.774 40.1978 20.6643C39.8282 20.5012 39.424 20.4297 39.0202 20.4561L32.0167 20.4675V16.2142H39.6716C40.6691 16.1968 41.6667 16.2431 42.6582 16.3527C43.3513 16.4669 43.9738 16.8395 44.3978 17.3939C44.9818 18.2785 45.2482 19.3317 45.1544 20.3843V26.1224C45.1237 27.125 45.3857 28.1151 45.909 28.9742C46.1196 29.3402 46.4235 29.6452 46.7904 29.8588C47.1573 30.0724 47.5743 30.187 48 30.1914V34.2261C47.5736 34.2255 47.1546 34.3361 46.7851 34.5467C46.4157 34.7572 46.1087 35.0604 45.8953 35.4256C45.3791 36.293 45.1235 37.2881 45.1586 38.2941V43.7886C45.2498 44.827 44.9907 45.8661 44.422 46.7435C43.9932 47.308 43.3661 47.6929 42.6645 47.8222C41.6752 47.9582 40.6765 48.0163 39.6779 47.9961H32.0157V43.7532H39.0191C39.4249 43.7811 39.831 43.7032 40.1967 43.5272" fill="#00DC81"/>
<path d="M26.987 43.7529H13.5262V47.9958H26.987V43.7529Z" fill="#00DC81"/>
<path d="M8.40418 47.9958H0.00631418L0 22.8287H8.40418V27.0768H4.50306V43.7528H8.39681L8.40418 47.9958Z" fill="#00DC81"/>
<path d="M13.4889 26.9927C15.5783 26.3744 17.4895 25.2746 19.0657 23.7835C20.642 22.2924 21.8382 20.4526 22.5561 18.4152C23.3644 16.367 23.8156 14.1979 23.8905 12.0003C23.8642 9.8434 23.5895 7.69646 23.0718 5.60107C23.0135 5.39657 23.012 5.18029 23.0676 4.97505C23.1232 4.76981 23.2337 4.5832 23.3875 4.43491C24.0536 3.92889 25.2238 4.43491 25.8132 4.83161C26.4714 5.31678 26.9455 6.00701 27.1591 6.79117C27.6554 8.25131 27.8549 9.79412 27.7464 11.3308L32.0463 11.36C32.3708 8.86229 31.9597 6.32501 30.8624 4.05279C30.2471 2.99824 29.4004 2.09372 28.3849 1.4059C27.3693 0.718069 26.2107 0.264461 24.9944 0.0784939C23.7407 -0.127247 22.4534 0.0740184 21.3248 0.6522C20.4308 1.20783 19.7191 2.00837 19.2762 2.95658C18.8332 3.90478 18.6781 4.95984 18.8297 5.9936C18.9297 6.95616 19.1096 7.90896 19.3674 8.84235C19.559 9.72529 19.6497 10.6267 19.6379 11.5297C19.6687 13.3918 19.3164 15.2406 18.6024 16.9638C17.7262 19.4871 15.9102 21.5847 13.5247 22.8289C13.511 24.2408 13.4953 25.5819 13.49 26.9938" fill="#00DC81"/>
</svg>
